[Header]
FileType HTR
DataType HTRS
FileVersion 1
NumSegments 64
NumFrames 3
DataFrameRate 24
EulerRotationOrder ZYX
CalibrationUnits mm
RotationUnits Degrees
GlobalAxisofGravity Y
BoneLengthAxis Y
ScaleFactor 1.0
[SegmentNames&Hierarchy]
Hips	GLOBAL
Spine	Hips
Spine1	Spine
Spine2	Spine1
Neck	Spine2
Head	Neck
LeftEye	Head
RightEye	Head
LeftShoulder	Spine2
LeftArm	LeftShoulder
LeftForeArm	LeftArm
LeftHand	LeftForeArm
LeftHandThumb1	LeftHand
LeftHandThumb2	LeftHandThumb1
LeftHandThumb3	LeftHandThumb2
LeftHandThumb4	LeftHandThumb3
LeftHandIndex1	LeftHand
LeftHandIndex2	LeftHandIndex1
LeftHandIndex3	LeftHandIndex2
LeftHandIndex4	LeftHandIndex3
LeftHandMiddle1	LeftHand
LeftHandMiddle2	LeftHandMiddle1
LeftHandMiddle3	LeftHandMiddle2
LeftHandMiddle4	LeftHandMiddle3
LeftHandRing1	LeftHand
LeftHandRing2	LeftHandRing1
LeftHandRing3	LeftHandRing2
LeftHandRing4	LeftHandRing3
LeftHandPinky1	LeftHand
LeftHandPinky2	LeftHandPinky1
LeftHandPinky3	LeftHandPinky2
LeftHandPinky4	LeftHandPinky3
RightShoulder	Spine2
RightArm	RightShoulder
RightForeArm	RightArm
RightHand	RightForeArm
RightHandPinky1	RightHand
RightHandPinky2	RightHandPinky1
RightHandPinky3	RightHandPinky2
RightHandPinky4	RightHandPinky3
RightHandRing1	RightHand
RightHandRing2	RightHandRing1
RightHandRing3	RightHandRing2
RightHandRing4	RightHandRing3
RightHandMiddle1	RightHand
RightHandMiddle2	RightHandMiddle1
RightHandMiddle3	RightHandMiddle2
RightHandMiddle4	RightHandMiddle3
RightHandIndex1	RightHand
RightHandIndex2	RightHandIndex1
RightHandIndex3	RightHandIndex2
RightHandIndex4	RightHandIndex3
RightHandThumb1	RightHand
RightHandThumb2	RightHandThumb1
RightHandThumb3	RightHandThumb2
RightHandThumb4	RightHandThumb3
LeftUpLeg	Hips
LeftLeg	LeftUpLeg
LeftFoot	LeftLeg
LeftToeBase	LeftFoot
RightUpLeg	Hips
RightLeg	RightUpLeg
RightFoot	RightLeg
RightToeBase	RightFoot
[BasePosition]
Hips	0	0	0	0	0	0	1
Spine	0	0	0	0	0	0	1
Spine1	0	0	0	0	0	0	1
Spine2	0	0	0	0	0	0	1
Neck	0	0	0	0	0	0	1
Head	0	0	0	0	0	0	1
LeftEye	0	0	0	0	0	0	1
RightEye	0	0	0	0	0	0	1
LeftShoulder	0	0	0	0	0	0	1
LeftArm	0	0	0	0	0	0	1
LeftForeArm	0	0	0	0	0	0	1
LeftHand	0	0	0	0	0	0	1
LeftHandThumb1	0	0	0	0	0	0	1
LeftHandThumb2	0	0	0	0	0	0	1
LeftHandThumb3	0	0	0	0	0	0	1
LeftHandThumb4	0	0	0	0	0	0	1
LeftHandIndex1	0	0	0	0	0	0	1
LeftHandIndex2	0	0	0	0	0	0	1
LeftHandIndex3	0	0	0	0	0	0	1
LeftHandIndex4	0	0	0	0	0	0	1
LeftHandMiddle1	0	0	0	0	0	0	1
LeftHandMiddle2	0	0	0	0	0	0	1
LeftHandMiddle3	0	0	0	0	0	0	1
LeftHandMiddle4	0	0	0	0	0	0	1
LeftHandRing1	0	0	0	0	0	0	1
LeftHandRing2	0	0	0	0	0	0	1
LeftHandRing3	0	0	0	0	0	0	1
LeftHandRing4	0	0	0	0	0	0	1
LeftHandPinky1	0	0	0	0	0	0	1
LeftHandPinky2	0	0	0	0	0	0	1
LeftHandPinky3	0	0	0	0	0	0	1
LeftHandPinky4	0	0	0	0	0	0	1
RightShoulder	0	0	0	0	0	0	1
RightArm	0	0	0	0	0	0	1
RightForeArm	0	0	0	0	0	0	1
RightHand	0	0	0	0	0	0	1
RightHandPinky1	0	0	0	0	0	0	1
RightHandPinky2	0	0	0	0	0	0	1
RightHandPinky3	0	0	0	0	0	0	1
RightHandPinky4	0	0	0	0	0	0	1
RightHandRing1	0	0	0	0	0	0	1
RightHandRing2	0	0	0	0	0	0	1
RightHandRing3	0	0	0	0	0	0	1
RightHandRing4	0	0	0	0	0	0	1
RightHandMiddle1	0	0	0	0	0	0	1
RightHandMiddle2	0	0	0	0	0	0	1
RightHandMiddle3	0	0	0	0	0	0	1
RightHandMiddle4	0	0	0	0	0	0	1
RightHandIndex1	0	0	0	0	0	0	1
RightHandIndex2	0	0	0	0	0	0	1
RightHandIndex3	0	0	0	0	0	0	1
RightHandIndex4	0	0	0	0	0	0	1
RightHandThumb1	0	0	0	0	0	0	1
RightHandThumb2	0	0	0	0	0	0	1
RightHandThumb3	0	0	0	0	0	0	1
RightHandThumb4	0	0	0	0	0	0	1
LeftUpLeg	0	0	0	0	0	0	1
LeftLeg	0	0	0	0	0	0	1
LeftFoot	0	0	0	0	0	0	1
LeftToeBase	0	0	0	0	0	0	1
RightUpLeg	0	0	0	0	0	0	1
RightLeg	0	0	0	0	0	0	1
RightFoot	0	0	0	0	0	0	1
RightToeBase	0	0	0	0	0	0	1
[Hips]
1	-0.4940834343	859.7149658	19.1464901	22.99510002	-14.9639864	-10.71614647	1.0
2	4.105320454	876.9211426	210.0770264	21.96571541	-12.88324356	-3.563058615	1.0
3	5.374976158	901.52771	404.3981323	23.3850441	-6.904987335	3.219471931	1.0
[Spine]
1	0	101.8159943	1.315000057	15.46500587	11.25296688	4.977573395	1.0
2	0	101.8159943	1.315000057	12.88190269	16.02859688	-0.9509964585	1.0
3	0	101.8159943	1.315000057	8.885828018	16.76585579	-6.473306179	1.0
[Spine1]
1	0	100.8349991	-10.00800037	1.165065646	3.028517723	0.7795071602	1.0
2	0	100.8349991	-10.00800037	0.7868246436	4.23995924	-0.08729469776	1.0
3	0	100.8349991	-10.00800037	0.5563463569	4.483953953	-0.9573321939	1.0
[Spine2]
1	0	91	-13.73399925	1.19918704	2.988441229	0.76003474	1.0
2	0	91	-13.73399925	0.802451551	4.225193501	-0.1020563468	1.0
3	0	91	-13.73399925	0.5358868241	4.493968487	-0.9692002535	1.0
[Neck]
1	0	166.7169952	-25.16200066	-7.439236164	-1.525375605	1.572119117	1.0
2	0	166.7169952	-25.16200066	-7.561963081	-2.474850178	0.8176144361	1.0
3	0	166.7169952	-25.16200066	-7.486959934	-3.157949924	0.214626506	1.0
[Head]
1	0	96.17900085	16.84999847	-24.72348785	2.430620909	-5.31667614	1.0
2	0	96.17900085	16.84999847	-22.42277718	-7.244599819	-1.319310188	1.0
3	0	96.17900085	16.84999847	-19.91394806	-15.39433098	2.696612358	1.0
[LeftEye]
1	30.6760006	64.09500122	92.83599854	0	0	0	1.0
2	30.6760006	64.09500122	92.83599854	0	0	0	1.0
3	30.6760006	64.09500122	92.83599854	0	0	0	1.0
[RightEye]
1	-30.6760006	64.09500122	92.83499908	0	0	0	1.0
2	-30.6760006	64.09500122	92.83499908	0	0	0	1.0
3	-30.6760006	64.09500122	92.83499908	0	0	0	1.0
[LeftShoulder]
1	45.70400238	109.4599991	-26.28000069	0.0637845844	3.176055193	-12.3500185	1.0
2	45.70400238	109.4599991	-26.28000069	0.1336511225	2.733126402	-9.969976425	1.0
3	45.70400238	109.4599991	-26.28000069	0.7015814185	-0.7351487875	-9.165908813	1.0
[LeftArm]
1	105.923996	-5.24600029	-22.32099915	5.647087097	44.35242844	-59.14573669	1.0
2	105.923996	-5.24600029	-22.32099915	13.52488422	56.1163063	-46.08674622	1.0
3	105.923996	-5.24600029	-22.32099915	27.04375458	61.222332	-27.57863235	1.0
[LeftForeArm]
1	278.414978	-0.0009999999311	0	1.88638603e-06	-65.65270996	-0.0002057221864	1.0
2	278.414978	-0.0009999999311	0	2.925122499e-05	-74.45845795	-0.0002253866842	1.0
3	278.414978	-0.0009999999311	0	-1.301622524e-05	-81.51651001	-0.000179300725	1.0
[LeftHand]
1	283.2879944	0	0	12.05821705	-15.98496056	17.18775368	1.0
2	283.2879944	0	0	11.14835548	-15.3260603	16.17627335	1.0
3	283.2879944	0	0	10.48692608	-14.96216965	14.00474834	1.0
[LeftHandThumb1]
1	24.6609993	-15.75	26.8239994	-7.687894821	-2.87317729	19.62811661	1.0
2	24.6609993	-15.75	26.8239994	-7.687894821	-2.87317729	19.62811661	1.0
3	24.6609993	-15.75	26.8239994	-7.687894821	-2.87317729	19.62811661	1.0
[LeftHandThumb2]
1	32.29800034	-18.64699936	18.64699936	10.02670002	28.30481148	-8.916063309	1.0
2	32.29800034	-18.64699936	18.64699936	10.01557732	27.93634605	-8.847231865	1.0
3	32.29800034	-18.64699936	18.64699936	10.03776646	27.66223717	-8.798532486	1.0
[LeftHandThumb3]
1	26.52600098	-15.31499958	15.31499958	-15.52696514	-23.58605194	21.63868332	1.0
2	26.52600098	-15.31499958	15.31499958	-15.24060917	-23.19233513	20.9976635	1.0
3	26.52600098	-15.31499958	15.31499958	-15.94306755	-24.12891579	22.67710114	1.0
[LeftHandThumb4]
1	19.54599953	-11.28499985	11.28499985	0	0	0	1.0
2	19.54599953	-11.28499985	11.28499985	0	0	0	1.0
3	19.54599953	-11.28499985	11.28499985	0	0	0	1.0
[LeftHandIndex1]
1	91.09299469	-5.170999527	22.60099792	1.432512641	-10.83621216	-29.08020401	1.0
2	91.09299469	-5.170999527	22.60099792	2.05881834	-10.85817432	-27.49095917	1.0
3	91.09299469	-5.170999527	22.60099792	3.314409971	-10.78842258	-22.82475281	1.0
[LeftHandIndex2]
1	36.76399994	0	0	-4.715777874	5.718951225	-79.00221252	1.0
2	36.76399994	0	0	-4.912228107	5.753472328	-80.96755219	1.0
3	36.76399994	0	0	-4.870744228	5.746759415	-80.5535202	1.0
[LeftHandIndex3]
1	28.83100128	0	0	-0.8054900765	2.959385872	-30.44618225	1.0
2	28.83100128	0	0	-0.8007935882	2.951386452	-30.35512161	1.0
3	28.83100128	0	0	-0.7976551652	2.946020842	-30.29406929	1.0
[LeftHandIndex4]
1	23.92700005	0	0	0	0	0	1.0
2	23.92700005	0	0	0	0	0	1.0
3	23.92700005	0	0	0	0	0	1.0
[LeftHandMiddle1]
1	95.33399963	0	0	-3.651675463	-2.788675547	-48.40023041	1.0
2	95.33399963	0	0	-3.63370657	-3.789933205	-48.29627609	1.0
3	95.33399963	0	0	-3.560475349	-5.561373711	-47.71517563	1.0
[LeftHandMiddle2]
1	36.98199844	0	0	-3.470578909	5.329618931	-66.1215744	1.0
2	36.98199844	0	0	-3.520933151	5.351533413	-66.66262817	1.0
3	36.98199844	0	0	-3.543720722	5.361258507	-66.90667725	1.0
[LeftHandMiddle3]
1	29.50900078	0	0	-0.9732317328	3.227414846	-33.55366898	1.0
2	29.50900078	0	0	-0.9859237075	3.246459007	-33.77859879	1.0
3	29.50900078	0	0	-1.013661265	3.287478685	-34.26527405	1.0
[LeftHandMiddle4]
1	28.3390007	0	0	0	0	0	1.0
2	28.3390007	0	0	0	0	0	1.0
3	28.3390007	0	0	0	0	0	1.0
[LeftHandRing1]
1	91.04499817	-0.4390000105	-18.65100098	-4.026377678	-1.277676702	-51.86700821	1.0
2	91.04499817	-0.4390000105	-18.65100098	-3.959343433	-1.257147312	-51.2359581	1.0
3	91.04499817	-0.4390000105	-18.65100098	-3.97858429	-1.622893214	-51.4325676	1.0
[LeftHandRing2]
1	31.54000092	0	0	-4.513391495	5.676080227	-76.96381378	1.0
2	31.54000092	0	0	-4.625479221	5.70074892	-78.09463501	1.0
3	31.54000092	0	0	-4.669772148	5.709863663	-78.5401535	1.0
[LeftHandRing3]
1	29.37700081	0	0	-0.720076859	2.809206724	-28.7489109	1.0
2	29.37700081	0	0	-0.704279542	2.78024745	-28.42489433	1.0
3	29.37700081	0	0	-0.7453253269	2.854696751	-29.25999641	1.0
[LeftHandRing4]
1	26.47500038	0	0	0	0	0	1.0
2	26.47500038	0	0	0	0	0	1.0
3	26.47500038	0	0	0	0	0	1.0
[LeftHandPinky1]
1	80.77799988	-4.887000084	-38.06099701	-4.655609131	0.9810996056	-57.63195419	1.0
2	80.77799988	-4.887000084	-38.06099701	-4.592543602	0.9640669227	-56.55263519	1.0
3	80.77799988	-4.887000084	-38.06099701	-4.76057291	1.084784865	-57.46814346	1.0
[LeftHandPinky2]
1	36	0	0	-2.700095177	4.918402672	-57.51077271	1.0
2	36	0	0	-2.743573427	4.945733547	-58.01655197	1.0
3	36	0	0	-2.725653887	4.934531689	-57.80841446	1.0
[LeftHandPinky3]
1	21.14200211	0	0	-0.9860304594	3.246616364	-33.78041077	1.0
2	21.14200211	0	0	-0.9883716702	3.250108242	-33.82184982	1.0
3	21.14200211	0	0	-1.008453369	3.279832125	-34.17441559	1.0
[LeftHandPinky4]
1	19.75699997	0	0	0	0	0	1.0
2	19.75699997	0	0	0	0	0	1.0
3	19.75699997	0	0	0	0	0	1.0
[RightShoulder]
1	-45.70000076	109.4620056	-26.28000069	3.422007322	9.862174034	19.09194183	1.0
2	-45.70000076	109.4620056	-26.28000069	2.369882107	7.385908127	14.89081955	1.0
3	-45.70000076	109.4620056	-26.28000069	1.547645092	3.85708952	13.93871689	1.0
[RightArm]
1	-105.9280014	-5.248000145	-22.32099915	-9.024452209	30.34974289	35.2988739	1.0
2	-105.9280014	-5.248000145	-22.32099915	-19.24161911	32.2689209	26.30356789	1.0
3	-105.9280014	-5.248000145	-22.32099915	-29.4072361	22.48995781	22.1349926	1.0
[RightForeArm]
1	-278.414978	0	0	-3.051757813e-05	101.3917313	-1.525878906e-05	1.0
2	-278.414978	0	0	-1.525878906e-05	111.5269547	0	1.0
3	-278.414978	0	0	0	123.8588867	1.525878906e-05	1.0
[RightHand]
1	-283.2879944	0	0.0009999999311	34.13077164	14.28551769	-4.149542332	1.0
2	-283.2879944	0	0.0009999999311	38.48454285	19.33760452	-28.39593124	1.0
3	-283.2879944	0	0.0009999999311	28.34793472	15.87286186	-10.60720825	1.0
[RightHandPinky1]
1	-80.76699829	-4.885000229	-38.06000137	-6.234032154	1.190911651	81.91564178	1.0
2	-80.76699829	-4.885000229	-38.06000137	-6.191416264	1.421649218	81.41959381	1.0
3	-80.76699829	-4.885000229	-38.06000137	-6.44484663	0.878460288	81.08547974	1.0
[RightHandPinky2]
1	-36	0	0.0009999999311	-3.922610044	-4.576212883	81.21633148	1.0
2	-36	0	0.0009999999311	-4.070977688	-4.596664429	83.07172394	1.0
3	-36	0	0.0009999999311	-3.83613658	-4.562017441	80.13101196	1.0
[RightHandPinky3]
1	-21.14200211	0	0	-3.150578499	-4.388136864	71.3420105	1.0
2	-21.14200211	0	0	-3.178344727	-4.397397041	71.70449829	1.0
3	-21.14200211	0	0	-3.075772524	-4.362229824	70.36147308	1.0
[RightHandPinky4]
1	-19.75699997	0	0	0	0	0	1.0
2	-19.75699997	0	0	0	0	0	1.0
3	-19.75699997	0	0	0	0	0	1.0
[RightHandRing1]
1	-91.03599548	-0.4390000105	-18.65100098	-5.816599846	3.821040869	77.08340454	1.0
2	-91.03599548	-0.4390000105	-18.65100098	-5.719880581	3.865929842	76.0045929	1.0
3	-91.03599548	-0.4390000105	-18.65100098	-5.626186848	2.554041386	74.99807739	1.0
[RightHandRing2]
1	-31.54000092	0	0	-3.646004677	-4.52488327	77.71138763	1.0
2	-31.54000092	0	0	-3.739944696	-4.544270992	78.8996582	1.0
3	-31.54000092	0	0	-3.363809586	-4.454257011	74.10762024	1.0
[RightHandRing3]
1	-29.37700081	0	0	-1.30326879	-3.222226858	44.03416824	1.0
2	-29.37700081	0	0	-1.33054471	-3.250160217	44.51735306	1.0
3	-29.37700081	0	0	-1.285582185	-3.203875303	43.71854401	1.0
[RightHandRing4]
1	-26.47500038	0	0	0	0	0	1.0
2	-26.47500038	0	0	0	0	0	1.0
3	-26.47500038	0	0	0	0	0	1.0
[RightHandMiddle1]
1	-95.32500458	0	0	-4.560402393	1.685592055	63.28642273	1.0
2	-95.32500458	0	0	-4.633794785	-0.02547855675	64.09222412	1.0
3	-95.32500458	0	0	-4.450327873	1.400492311	62.08061981	1.0
[RightHandMiddle2]
1	-36.98199844	0	0	-3.188575983	-4.400752544	71.8380661	1.0
2	-36.98199844	0	0	-3.111495018	-4.374793053	70.83036041	1.0
3	-36.98199844	0	0	-2.992627621	-4.331765652	69.264534	1.0
[RightHandMiddle3]
1	-29.50900078	0	0	-1.980016589	-3.800263882	55.05295181	1.0
2	-29.50900078	0	0	-2.019196987	-3.827317238	55.64252853	1.0
3	-29.50900078	0	0	-2.042496204	-3.843104601	55.99099731	1.0
[RightHandMiddle4]
1	-28.3390007	0	0.0009999999311	0	0	0	1.0
2	-28.3390007	0	0.0009999999311	0	0	0	1.0
3	-28.3390007	0	0.0009999999311	0	0	0	1.0
[RightHandIndex1]
1	-91.08300018	-5.167999744	22.60099792	-3.598477125	3.142578363	60.80112076	1.0
2	-91.08300018	-5.167999744	22.60099792	-3.196387529	3.743928194	62.60317612	1.0
3	-91.08300018	-5.167999744	22.60099792	-2.731455326	3.032582045	60.73508453	1.0
[RightHandIndex2]
1	-36.76399994	0	0	-2.372469425	-4.043707371	60.78762817	1.0
2	-36.76399994	0	0	-2.352531672	-4.032514572	60.50444794	1.0
3	-36.76399994	0	0	-2.178521633	-3.929234505	57.99830246	1.0
[RightHandIndex3]
1	-28.83100128	0	0	-0.8296772838	-2.646811724	34.80335999	1.0
2	-28.83100128	0	0	-0.8375379443	-2.65806365	34.97310257	1.0
3	-28.83100128	0	0	-0.9026091695	-2.748640299	36.35273361	1.0
[RightHandIndex4]
1	-23.92700005	0	0	0	0	0	1.0
2	-23.92700005	0	0	0	0	0	1.0
3	-23.92700005	0	0	0	0	0	1.0
[RightHandThumb1]
1	-24.64799881	-15.72700024	26.82600021	-10.80079556	1.639939547	-1.271696329	1.0
2	-24.64799881	-15.72700024	26.82600021	-10.80079556	1.639939547	-1.271696329	1.0
3	-24.64799881	-15.72700024	26.82600021	-10.80079556	1.639939547	-1.271696329	1.0
[RightHandThumb2]
1	-32.29800034	-18.64699936	18.64699936	19.15063286	-22.6645546	-4.492705822	1.0
2	-32.29800034	-18.64699936	18.64699936	18.85796547	-22.08578491	-4.495752811	1.0
3	-32.29800034	-18.64699936	18.64699936	19.7722168	-24.24210358	-4.458862782	1.0
[RightHandThumb3]
1	-26.52600098	-15.31399918	15.31399918	-17.25032997	18.38363266	-9.925430298	1.0
2	-26.52600098	-15.31399918	15.31399918	-17.25312614	18.39570045	-10.03142166	1.0
3	-26.52600098	-15.31399918	15.31399918	-17.35525131	19.98063087	-11.68412113	1.0
[RightHandThumb4]
1	-19.54599953	-11.28499985	11.28499985	0	0	0	1.0
2	-19.54599953	-11.28499985	11.28499985	0	0	0	1.0
3	-19.54599953	-11.28499985	11.28499985	0	0	0	1.0
[LeftUpLeg]
1	82.07800293	-67.51699829	-15.99599934	-70.44314575	17.70807838	8.283876419	1.0
2	82.07800293	-67.51699829	-15.99599934	-84.21657562	14.1385994	0.8967864513	1.0
3	82.07800293	-67.51699829	-15.99599934	-88.61643982	5.005093575	-3.535551548	1.0
[LeftLeg]
1	0	-443.7049866	2.845999956	120.5477905	0.2570739985	-2.229269981	1.0
2	0	-443.7049866	2.845999956	108.5428085	0.6343433857	-3.943798065	1.0
3	0	-443.7049866	2.845999956	87.22750092	-0.5100466013	-0.4386829734	1.0
[LeftFoot]
1	0	-444.2789917	-29.8219986	-5.625097275	0.5518527627	13.09578228	1.0
2	0	-444.2789917	-29.8219986	-8.31091404	1.271231294	12.27691078	1.0
3	0	-444.2789917	-29.8219986	-6.778559208	0.6212002039	3.620046854	1.0
[LeftToeBase]
1	0	-87.28699493	107.1060028	-6.008690357	-6.29082615e-06	1.247537512e-06	1.0
2	0	-87.28699493	107.1060028	0.9760361314	3.797371846e-06	-3.542030299e-06	1.0
3	0	-87.28699493	107.1060028	0.2318180352	3.232120775e-07	2.152657544e-06	1.0
[RightUpLeg]
1	-82.07800293	-67.51699829	-15.99599934	-29.00051117	2.367943525	4.484249115	1.0
2	-82.07800293	-67.51699829	-15.99599934	-9.850223541	-5.449492931	-4.203273296	1.0
3	-82.07800293	-67.51699829	-15.99599934	8.078072548	-10.80743217	-10.98906803	1.0
[RightLeg]
1	0	-443.7049866	2.861999989	56.03339767	7.288618088	3.617311954	1.0
2	0	-443.7049866	2.861999989	36.69021606	11.20984173	0.671389699	1.0
3	0	-443.7049866	2.861999989	12.922328	8.078253746	-2.804192305	1.0
[RightFoot]
1	0	-444.2770081	-29.83799934	-37.89665222	0.9122043848	3.197762489	1.0
2	0	-444.2770081	-29.83799934	-22.03005791	3.328782082	6.001878738	1.0
3	0	-444.2770081	-29.83799934	7.261266232	-1.247266531	11.84278965	1.0
[RightToeBase]
1	0	-87.28699493	107.1060028	-10.97318745	-3.795134717e-06	-1.186549639e-06	1.0
2	0	-87.28699493	107.1060028	-26.51218033	-0.003230578965	-0.006549400743	1.0
3	0	-87.28699493	107.1060028	-27.4718399	0.6991299987	1.924751043	1.0
[EndOfFile]
